<?xml version="1.0" encoding="utf-8"?>
<!-- Generator: Adobe Illustrator 28.1.0, SVG Export Plug-In . SVG Version: 6.00 Build 0)  -->
<svg version="1.1" id="레이어_1" xmlns="http://www.w3.org/2000/svg" xmlns:xlink="http://www.w3.org/1999/xlink" x="0px"
	 y="0px" viewBox="0 0 29.2 29.2" style="enable-background:new 0 0 29.2 29.2;" xml:space="preserve">
<style type="text/css">
	.st0{fill:#EA6F59;}
	.st1{fill:#FFFFFF;}
</style>
<circle class="st0" cx="14.6" cy="14.6" r="14.5"/>
<path id="Icon_ionic-ios-close-circle" class="st1" d="M19.2,21.2l-4.6-4.6l-4.6,4.6c-0.5,0.6-1.4,0.6-2,0.1c-0.6-0.5-0.6-1.4-0.1-2
	c0,0,0,0,0.1-0.1l4.6-4.6l-4.6-4.6c-0.5-0.6-0.5-1.4,0.1-2c0.5-0.5,1.4-0.5,1.9,0l4.6,4.6l4.6-4.6c0.5-0.6,1.4-0.6,2-0.1
	c0.6,0.5,0.6,1.4,0.1,2c0,0,0,0-0.1,0.1l-4.6,4.6l4.6,4.6c0.5,0.5,0.5,1.4,0,2C20.6,21.7,19.7,21.7,19.2,21.2
	C19.2,21.2,19.2,21.2,19.2,21.2z"/>
</svg>
