<?xml version="1.0" encoding="utf-8"?>
<!-- Generator: Adobe Illustrator 28.1.0, SVG Export Plug-In . SVG Version: 6.00 Build 0)  -->
<svg version="1.1" id="check-circle-fill" xmlns="http://www.w3.org/2000/svg" xmlns:xlink="http://www.w3.org/1999/xlink" x="0px"
	 y="0px" viewBox="0 0 36 36" style="enable-background:new 0 0 36 36;" xml:space="preserve">
<style type="text/css">
	.st0{fill-rule:evenodd;clip-rule:evenodd;fill:#6F59C9;}
</style>
<path id="패스_556" class="st0" d="M36,18c0,9.9-8.1,18-18,18S0,27.9,0,18S8.1,0,18,0S36,8.1,36,18z M27.1,11.2
	c-0.7-0.7-1.7-0.7-2.4,0l0,0l-7.8,10l-4.7-4.7c-0.7-0.6-1.8-0.6-2.4,0.1c-0.6,0.6-0.6,1.6,0,2.3l6,6c0.7,0.7,1.7,0.7,2.4,0l0,0
	l9-11.2C27.7,12.9,27.7,11.8,27.1,11.2L27.1,11.2z"/>
</svg>
